solid OpenSCAD_Model
  facet normal -0 0 1
    outer loop
      vertex -0.08 0.0225 0.559
      vertex 0.08 -0.0225 0.559
      vertex 0.08 0.0225 0.559
    endloop
  endfacet
  facet normal 0 0 1
    outer loop
      vertex 0.08 -0.0225 0.559
      vertex -0.08 0.0225 0.559
      vertex -0.08 -0.0225 0.559
    endloop
  endfacet
  facet normal 0 0 -1
    outer loop
      vertex -0.08 -0.0225 -0.559
      vertex 0.08 0.0225 -0.559
      vertex 0.08 -0.0225 -0.559
    endloop
  endfacet
  facet normal -0 0 -1
    outer loop
      vertex 0.08 0.0225 -0.559
      vertex -0.08 -0.0225 -0.559
      vertex -0.08 0.0225 -0.559
    endloop
  endfacet
  facet normal 0 -1 0
    outer loop
      vertex -0.08 -0.0225 -0.559
      vertex 0.08 -0.0225 0.559
      vertex -0.08 -0.0225 0.559
    endloop
  endfacet
  facet normal 0 -1 -0
    outer loop
      vertex 0.08 -0.0225 0.559
      vertex -0.08 -0.0225 -0.559
      vertex 0.08 -0.0225 -0.559
    endloop
  endfacet
  facet normal 1 -0 0
    outer loop
      vertex 0.08 -0.0225 0.559
      vertex 0.08 0.0225 -0.559
      vertex 0.08 0.0225 0.559
    endloop
  endfacet
  facet normal 1 0 0
    outer loop
      vertex 0.08 0.0225 -0.559
      vertex 0.08 -0.0225 0.559
      vertex 0.08 -0.0225 -0.559
    endloop
  endfacet
  facet normal 0 1 -0
    outer loop
      vertex 0.08 0.0225 -0.559
      vertex -0.08 0.0225 0.559
      vertex 0.08 0.0225 0.559
    endloop
  endfacet
  facet normal 0 1 0
    outer loop
      vertex -0.08 0.0225 0.559
      vertex 0.08 0.0225 -0.559
      vertex -0.08 0.0225 -0.559
    endloop
  endfacet
  facet normal -1 0 0
    outer loop
      vertex -0.08 -0.0225 -0.559
      vertex -0.08 0.0225 0.559
      vertex -0.08 0.0225 -0.559
    endloop
  endfacet
  facet normal -1 -0 0
    outer loop
      vertex -0.08 0.0225 0.559
      vertex -0.08 -0.0225 -0.559
      vertex -0.08 -0.0225 0.559
    endloop
  endfacet
endsolid OpenSCAD_Model
